<svg width="320" height="300" viewBox="0 0 320 300" xmlns="http://www.w3.org/2000/svg"><defs><linearGradient id="s0" gradientUnits="userSpaceOnUse" x1="160.0" y1="32.0" x2="262.2" y2="91.0"><stop offset="0%" stop-color="#e27f46"/><stop offset="100%" stop-color="#dd3366"/></linearGradient><linearGradient id="s1" gradientUnits="userSpaceOnUse" x1="262.2" y1="91.0" x2="262.2" y2="209.0"><stop offset="0%" stop-color="#dd3366"/><stop offset="100%" stop-color="#875b91"/></linearGradient><linearGradient id="s2" gradientUnits="userSpaceOnUse" x1="262.2" y1="209.0" x2="160.0" y2="268.0"><stop offset="0%" stop-color="#875b91"/><stop offset="100%" stop-color="#3182bb"/></linearGradient><linearGradient id="s3" gradientUnits="userSpaceOnUse" x1="160.0" y1="268.0" x2="57.8" y2="209.0"><stop offset="0%" stop-color="#3182bb"/><stop offset="100%" stop-color="#8ca670"/></linearGradient><linearGradient id="s4" gradientUnits="userSpaceOnUse" x1="57.8" y1="209.0" x2="57.8" y2="91.0"><stop offset="0%" stop-color="#8ca670"/><stop offset="100%" stop-color="#e8cb26"/></linearGradient><linearGradient id="s5" gradientUnits="userSpaceOnUse" x1="57.8" y1="91.0" x2="160.0" y2="32.0"><stop offset="0%" stop-color="#e8cb26"/><stop offset="100%" stop-color="#e27f46"/></linearGradient></defs><line x1="160.0" y1="32.0" x2="262.2" y2="91.0" stroke="url(#s0)" stroke-width="15" stroke-linecap="round"/><line x1="262.2" y1="91.0" x2="262.2" y2="209.0" stroke="url(#s1)" stroke-width="15" stroke-linecap="round"/><line x1="262.2" y1="209.0" x2="160.0" y2="268.0" stroke="url(#s2)" stroke-width="15" stroke-linecap="round"/><line x1="160.0" y1="268.0" x2="57.8" y2="209.0" stroke="url(#s3)" stroke-width="15" stroke-linecap="round"/><line x1="57.8" y1="209.0" x2="57.8" y2="91.0" stroke="url(#s4)" stroke-width="15" stroke-linecap="round"/><line x1="57.8" y1="91.0" x2="160.0" y2="32.0" stroke="url(#s5)" stroke-width="15" stroke-linecap="round"/><defs><radialGradient id="fy_bonito_light" cx="50.0%" cy="11.0%" r="78%"><stop offset="0%" stop-color="#efd24a"/><stop offset="65%" stop-color="#e8cb26" stop-opacity="0"/></radialGradient><radialGradient id="fp_bonito_light" cx="13.0%" cy="81.0%" r="78%"><stop offset="0%" stop-color="#dd3366"/><stop offset="65%" stop-color="#dd3366" stop-opacity="0"/></radialGradient><radialGradient id="fb_bonito_light" cx="87.0%" cy="81.0%" r="78%"><stop offset="0%" stop-color="#3182bb"/><stop offset="65%" stop-color="#3182bb" stop-opacity="0"/></radialGradient><radialGradient id="fo_bonito_light" cx="50%" cy="50%" r="42%"><stop offset="0%" stop-color="#f5853a"/><stop offset="60%" stop-color="#f07a32" stop-opacity="0.5"/><stop offset="100%" stop-color="#f07a32" stop-opacity="0"/></radialGradient><clipPath id="fc_bonito_light"><circle cx="160" cy="150" r="64"/></clipPath><linearGradient id="og_bonito_light" gradientUnits="userSpaceOnUse" x1="160" y1="86" x2="160" y2="214"><stop offset="0%" stop-color="#2a2f3a" stop-opacity="1"/><stop offset="100%" stop-color="#2a2f3a" stop-opacity="0.2"/></linearGradient></defs><g clip-path="url(#fc_bonito_light)"><rect x="96" y="86" width="128" height="128" fill="#c98a55"/><rect x="96" y="86" width="128" height="128" fill="url(#fy_bonito_light)"/><rect x="96" y="86" width="128" height="128" fill="url(#fp_bonito_light)"/><rect x="96" y="86" width="128" height="128" fill="url(#fb_bonito_light)"/><rect x="96" y="86" width="128" height="128" fill="url(#fo_bonito_light)"/></g><circle cx="160" cy="150" r="64" fill="none" stroke="url(#og_bonito_light)" stroke-width="3.5"/></svg>